<?xml version="1.0" standalone="no"?>
<!DOCTYPE svg PUBLIC "-//W3C//DTD SVG 20010904//EN"
 "http://www.w3.org/TR/2001/REC-SVG-20010904/DTD/svg10.dtd">
<svg version="1.0" xmlns="http://www.w3.org/2000/svg"
 width="1024.000000pt" height="1024.000000pt" viewBox="0 0 1024.000000 1024.000000"
 preserveAspectRatio="xMidYMid meet">
<metadata>
Created by potrace 1.14, written by Peter Selinger 2001-2017
</metadata>
<g transform="translate(0.000000,1024.000000) scale(0.100000,-0.100000)"
fill="#000000" stroke="none">
<path d="M4236 8953 c-2 -3 -19 -6 -38 -8 -123 -12 -163 -17 -248 -30 -56 -9
-60 -10 -145 -30 -38 -10 -81 -19 -95 -21 -108 -14 -399 -123 -625 -234 -416
-204 -686 -407 -990 -745 -379 -422 -630 -919 -745 -1475 -50 -245 -55 -302
-55 -640 1 -347 6 -428 45 -630 35 -184 99 -389 197 -634 40 -101 40 -123 4
-286 -12 -52 -23 -106 -25 -120 -2 -14 -13 -70 -24 -125 -12 -55 -23 -111 -25
-125 -3 -14 -8 -43 -12 -65 -4 -22 -10 -49 -12 -60 -2 -11 -6 -31 -9 -45 -3
-14 -19 -92 -36 -175 -17 -82 -32 -162 -34 -178 -2 -15 -10 -55 -18 -90 -8
-34 -17 -82 -21 -107 -3 -25 -8 -52 -11 -61 -8 -29 -14 -81 -21 -176 -8 -120
7 -161 85 -235 77 -74 132 -92 256 -85 50 3 138 15 196 27 58 11 116 23 130
26 14 2 68 13 120 24 52 11 106 22 120 24 14 2 95 19 180 36 85 18 166 34 180
36 14 3 72 14 129 25 57 12 115 23 128 25 13 3 67 14 121 25 176 37 148 41
437 -61 189 -67 451 -139 556 -155 24 -4 46 -8 49 -10 43 -26 946 -27 988 -1
4 2 24 7 44 10 194 31 564 140 734 216 219 99 513 272 689 405 155 116 419
377 535 528 308 398 542 875 626 1272 19 92 55 317 62 390 9 95 8 692 -1 735
-3 14 -8 48 -12 75 -24 194 -101 477 -191 708 -107 272 -292 593 -478 832
-107 138 -398 415 -606 576 -81 63 -224 159 -236 159 -3 0 -43 22 -87 48 -220
129 -512 242 -832 320 -180 45 -221 51 -405 67 -186 15 -564 27 -574 18z m423
-1294 c90 -13 97 -14 186 -44 183 -63 319 -147 453 -282 179 -182 285 -381
338 -633 19 -89 27 -407 12 -480 -50 -242 -174 -406 -523 -689 -163 -132 -278
-245 -298 -294 -9 -20 -19 -56 -22 -80 -3 -23 -8 -60 -11 -81 -16 -116 -124
-235 -238 -261 -158 -36 -338 63 -377 208 -22 81 -16 232 15 362 9 41 49 141
62 156 8 8 14 19 14 24 0 36 238 287 385 405 44 36 85 70 91 75 6 6 36 30 65
55 87 72 156 146 181 192 19 37 22 58 22 148 -2 218 -82 392 -228 494 -109 76
-187 99 -325 95 -183 -5 -327 -81 -421 -222 -65 -98 -89 -179 -106 -356 -18
-189 -107 -300 -267 -330 -164 -30 -332 83 -361 243 -18 94 -5 269 30 406 37
148 79 240 169 380 176 270 474 466 770 507 22 3 41 6 43 8 7 7 284 2 341 -6z
m-46 -3133 c155 -55 258 -197 259 -357 1 -80 -8 -119 -39 -186 -36 -75 -111
-148 -191 -186 -59 -28 -77 -31 -158 -32 -84 0 -95 2 -166 38 -172 84 -267
271 -223 437 17 66 61 149 98 188 105 110 275 150 420 98z"/>
<path d="M8260 6454 c0 -5 5 -38 11 -74 29 -172 36 -325 34 -665 -2 -192 -6
-361 -8 -375 -21 -102 -29 -352 -14 -440 19 -117 22 -173 22 -420 0 -309 -5
-376 -40 -524 -9 -38 -18 -77 -20 -85 -20 -93 -76 -260 -120 -355 -73 -159
-109 -277 -108 -356 0 -55 28 -228 63 -390 5 -25 12 -56 14 -70 2 -14 11 -59
20 -100 8 -41 17 -86 20 -100 2 -14 11 -59 20 -100 18 -89 24 -119 35 -185 5
-27 12 -61 15 -75 11 -46 18 -85 19 -105 2 -24 1 -24 -173 11 -69 14 -132 27
-141 29 -19 4 -263 52 -299 59 -14 3 -104 20 -200 39 -283 56 -346 62 -416 43
-32 -10 -72 -23 -89 -31 -114 -50 -463 -176 -527 -189 -13 -3 -54 -12 -93 -20
-38 -8 -90 -17 -115 -21 -25 -3 -63 -8 -85 -11 -22 -3 -155 -8 -295 -9 -227
-3 -324 2 -425 20 -76 14 -247 17 -330 6 -175 -24 -223 -26 -560 -26 -336 0
-423 4 -540 25 -33 5 -82 13 -110 15 l-50 6 45 -41 c79 -70 300 -212 455 -290
328 -167 628 -271 920 -319 101 -17 119 -21 145 -27 14 -3 180 -8 370 -9 362
-4 412 0 655 45 33 6 89 18 125 27 36 8 70 16 75 18 71 15 269 81 421 141 62
24 127 44 143 44 28 0 298 -53 976 -190 410 -83 459 -91 544 -89 95 3 172 39
235 111 77 89 84 198 28 473 -17 83 -33 161 -35 175 -3 14 -15 72 -27 130 -12
58 -23 112 -25 121 -2 9 -15 74 -29 145 -14 71 -28 143 -30 159 -3 17 -15 75
-26 130 -21 103 -36 181 -44 225 -2 14 -11 58 -20 97 -15 72 -15 73 11 130 65
147 160 445 189 593 3 14 12 54 20 90 8 36 17 81 20 100 3 19 7 37 9 41 19 30
29 719 12 854 -23 190 -76 424 -142 626 -78 241 -247 577 -408 814 -61 89
-127 167 -127 149z"/>
</g>
</svg>
